<svg width="241" height="151" viewBox="0 0 241 151" fill="none" xmlns="http://www.w3.org/2000/svg">
<path d="M30.5764 106.813V119.426H24.5252V90.3354H30.4059V101.458H30.6616C31.154 100.17 31.9495 99.1611 33.048 98.4319C34.1465 97.6933 35.5243 97.324 37.1815 97.324C38.6966 97.324 40.0177 97.6554 41.1446 98.3183C42.2809 98.9717 43.1616 99.914 43.7866 101.145C44.4211 102.367 44.7336 103.83 44.7241 105.534V119.426H38.673V106.614C38.6824 105.269 38.3415 104.223 37.6502 103.475C36.9684 102.726 36.012 102.352 34.7809 102.352C33.9571 102.352 33.2279 102.528 32.5934 102.878C31.9684 103.228 31.476 103.74 31.1162 104.412C30.7658 105.075 30.5859 105.875 30.5764 106.813ZM59.4294 119.852C57.185 119.852 55.2532 119.398 53.6339 118.489C52.0241 117.57 50.7835 116.273 49.9123 114.597C49.0411 112.911 48.6055 110.918 48.6055 108.617C48.6055 106.372 49.0411 104.403 49.9123 102.708C50.7835 101.012 52.0099 99.6914 53.5913 98.7444C55.1822 97.7975 57.0477 97.324 59.1879 97.324C60.6273 97.324 61.9672 97.556 63.2078 98.02C64.4578 98.4746 65.5468 99.1611 66.4748 100.08C67.4123 100.998 68.1415 102.154 68.6623 103.546C69.1832 104.928 69.4436 106.547 69.4436 108.404V110.065H51.0203V106.315H63.7475C63.7475 105.444 63.5582 104.672 63.1794 104C62.8006 103.328 62.275 102.802 61.6027 102.423C60.9398 102.035 60.168 101.841 59.2873 101.841C58.3688 101.841 57.5544 102.054 56.8441 102.48C56.1434 102.897 55.5941 103.46 55.1964 104.171C54.7987 104.871 54.5951 105.653 54.5856 106.514V110.08C54.5856 111.159 54.7845 112.092 55.1822 112.878C55.5894 113.664 56.1623 114.27 56.901 114.696C57.6396 115.122 58.5155 115.335 59.5288 115.335C60.2011 115.335 60.8167 115.241 61.3754 115.051C61.9341 114.862 62.4123 114.578 62.81 114.199C63.2078 113.82 63.5108 113.356 63.7191 112.807L69.3157 113.176C69.0316 114.521 68.4493 115.695 67.5686 116.699C66.6974 117.693 65.5705 118.47 64.1879 119.029C62.8148 119.578 61.2286 119.852 59.4294 119.852ZM73.3924 119.426V97.6081H79.2589V101.415H79.4862C79.8839 100.061 80.5515 99.038 81.489 98.3467C82.4265 97.646 83.5061 97.2956 84.7277 97.2956C85.0307 97.2956 85.3574 97.3145 85.7078 97.3524C86.0582 97.3903 86.3659 97.4424 86.6311 97.5087V102.878C86.347 102.793 85.954 102.717 85.4521 102.651C84.9502 102.584 84.4909 102.551 84.0743 102.551C83.1841 102.551 82.3886 102.745 81.6879 103.134C80.9966 103.512 80.4474 104.043 80.0402 104.725C79.6424 105.406 79.4436 106.192 79.4436 107.083V119.426H73.3924ZM96.7838 119.781C95.1266 119.781 93.6256 119.355 92.2809 118.503C90.9457 117.641 89.8851 116.377 89.0991 114.71C88.3226 113.034 87.9343 110.979 87.9343 108.546C87.9343 106.046 88.3368 103.967 89.1417 102.31C89.9466 100.643 91.0167 99.3979 92.352 98.574C93.6966 97.7407 95.1692 97.324 96.7696 97.324C97.9912 97.324 99.0091 97.5323 99.8235 97.949C100.647 98.3562 101.31 98.8676 101.812 99.4831C102.324 100.089 102.712 100.686 102.977 101.273H103.162V90.3354H109.199V119.426H103.233V115.932H102.977C102.693 116.538 102.29 117.139 101.77 117.736C101.258 118.323 100.591 118.811 99.7667 119.199C98.9523 119.587 97.958 119.781 96.7838 119.781ZM98.7014 114.966C99.6768 114.966 100.501 114.701 101.173 114.171C101.855 113.631 102.376 112.878 102.735 111.912C103.105 110.946 103.289 109.815 103.289 108.517C103.289 107.22 103.11 106.093 102.75 105.136C102.39 104.18 101.869 103.441 101.187 102.921C100.505 102.4 99.6768 102.139 98.7014 102.139C97.7071 102.139 96.869 102.409 96.1872 102.949C95.5054 103.489 94.9893 104.237 94.6389 105.193C94.2885 106.15 94.1133 107.258 94.1133 108.517C94.1133 109.786 94.2885 110.908 94.6389 111.884C94.9987 112.85 95.5148 113.607 96.1872 114.156C96.869 114.696 97.7071 114.966 98.7014 114.966ZM132.327 103.83L126.787 104.171C126.693 103.697 126.489 103.271 126.177 102.892C125.864 102.504 125.452 102.196 124.941 101.969C124.439 101.732 123.838 101.614 123.137 101.614C122.199 101.614 121.409 101.813 120.765 102.21C120.121 102.599 119.799 103.119 119.799 103.773C119.799 104.294 120.007 104.734 120.424 105.094C120.84 105.454 121.555 105.743 122.569 105.96L126.517 106.756C128.639 107.191 130.22 107.892 131.262 108.858C132.303 109.824 132.824 111.093 132.824 112.665C132.824 114.095 132.403 115.35 131.56 116.429C130.727 117.509 129.581 118.351 128.123 118.958C126.674 119.554 125.002 119.852 123.108 119.852C120.22 119.852 117.919 119.251 116.205 118.048C114.5 116.836 113.501 115.189 113.208 113.105L119.159 112.793C119.339 113.673 119.775 114.346 120.466 114.81C121.158 115.264 122.043 115.492 123.123 115.492C124.183 115.492 125.035 115.288 125.679 114.881C126.333 114.464 126.664 113.929 126.674 113.276C126.664 112.726 126.432 112.277 125.978 111.926C125.523 111.566 124.822 111.292 123.875 111.102L120.097 110.35C117.966 109.923 116.38 109.185 115.338 108.134C114.306 107.083 113.79 105.743 113.79 104.114C113.79 102.712 114.169 101.505 114.927 100.492C115.694 99.4784 116.768 98.6971 118.151 98.1479C119.543 97.5986 121.172 97.324 123.037 97.324C125.793 97.324 127.962 97.9064 129.543 99.0712C131.134 100.236 132.062 101.822 132.327 103.83ZM136.635 119.426V97.6081H142.402V101.458H142.657C143.112 100.179 143.869 99.1706 144.93 98.4319C145.991 97.6933 147.26 97.324 148.737 97.324C150.233 97.324 151.507 97.698 152.558 98.4462C153.609 99.1848 154.31 100.189 154.66 101.458H154.887C155.333 100.208 156.137 99.2085 157.302 98.4604C158.476 97.7028 159.864 97.324 161.464 97.324C163.5 97.324 165.153 97.9727 166.422 99.27C167.7 100.558 168.339 102.386 168.339 104.753V119.426H162.302V105.946C162.302 104.734 161.98 103.825 161.336 103.219C160.692 102.613 159.887 102.31 158.922 102.31C157.823 102.31 156.966 102.66 156.351 103.361C155.735 104.052 155.427 104.966 155.427 106.102V119.426H149.561V105.818C149.561 104.748 149.253 103.896 148.637 103.261C148.031 102.627 147.231 102.31 146.237 102.31C145.565 102.31 144.958 102.48 144.419 102.821C143.888 103.153 143.467 103.621 143.155 104.227C142.842 104.824 142.686 105.525 142.686 106.33V119.426H136.635ZM179.341 119.838C177.949 119.838 176.708 119.597 175.619 119.114C174.53 118.621 173.668 117.897 173.034 116.94C172.409 115.975 172.096 114.772 172.096 113.333C172.096 112.12 172.319 111.102 172.764 110.279C173.209 109.455 173.815 108.792 174.582 108.29C175.349 107.788 176.22 107.409 177.196 107.154C178.181 106.898 179.213 106.718 180.292 106.614C181.561 106.481 182.584 106.358 183.36 106.244C184.137 106.121 184.7 105.941 185.051 105.705C185.401 105.468 185.576 105.118 185.576 104.654V104.568C185.576 103.669 185.292 102.973 184.724 102.48C184.165 101.988 183.37 101.742 182.338 101.742C181.249 101.742 180.382 101.983 179.738 102.466C179.094 102.94 178.668 103.536 178.46 104.256L172.863 103.801C173.147 102.476 173.706 101.33 174.539 100.364C175.373 99.3884 176.448 98.6403 177.764 98.1194C179.09 97.5891 180.624 97.324 182.366 97.324C183.578 97.324 184.738 97.466 185.846 97.7501C186.964 98.0342 187.953 98.4746 188.815 99.0712C189.686 99.6677 190.373 100.435 190.875 101.372C191.377 102.3 191.628 103.413 191.628 104.71V119.426H185.889V116.401H185.718C185.368 117.083 184.899 117.684 184.312 118.205C183.725 118.716 183.02 119.119 182.196 119.412C181.372 119.696 180.42 119.838 179.341 119.838ZM181.074 115.662C181.964 115.662 182.75 115.487 183.431 115.136C184.113 114.777 184.648 114.294 185.037 113.688C185.425 113.082 185.619 112.395 185.619 111.628V109.313C185.43 109.436 185.169 109.549 184.838 109.654C184.516 109.748 184.151 109.838 183.744 109.923C183.337 109.999 182.93 110.07 182.522 110.136C182.115 110.193 181.746 110.245 181.414 110.293C180.704 110.397 180.084 110.563 179.554 110.79C179.023 111.017 178.611 111.325 178.318 111.713C178.024 112.092 177.878 112.565 177.878 113.134C177.878 113.958 178.176 114.587 178.772 115.023C179.378 115.449 180.146 115.662 181.074 115.662ZM202.373 106.813V119.426H196.322V97.6081H202.089V101.458H202.345C202.828 100.189 203.637 99.1848 204.774 98.4462C205.91 97.698 207.288 97.324 208.907 97.324C210.423 97.324 211.744 97.6554 212.87 98.3183C213.997 98.9812 214.873 99.9282 215.498 101.159C216.123 102.381 216.436 103.839 216.436 105.534V119.426H210.385V106.614C210.394 105.279 210.053 104.237 209.362 103.489C208.671 102.731 207.719 102.352 206.507 102.352C205.692 102.352 204.973 102.528 204.348 102.878C203.732 103.228 203.249 103.74 202.899 104.412C202.558 105.075 202.383 105.875 202.373 106.813Z" fill="#FF3D00"/>
<path fill-rule="evenodd" clip-rule="evenodd" d="M140.656 23.0651H91.4015V72.3193H140.656V23.0651ZM109.249 31.9692L98.9287 33.7521V43.8721L104.769 50.767H98.9287V63.7521L109.249 65.3024V52.9921H122.049V65.3024L132.369 63.7521V48.7521V41.2521V41.1181C132.369 38.009 133.432 34.9934 135.383 32.5723L126.554 28.2439C123.64 31.806 122.049 36.2662 122.049 40.8679V41.2521V43.8721H109.249V31.9692Z" fill="#FF3D00"/>
</svg>
