<svg width="18" height="37" viewBox="0 0 18 37" fill="none" xmlns="http://www.w3.org/2000/svg">
<g opacity="0.5" filter="url(#filter0_i_176_72)">
<path d="M6 18.1682C6 21.4819 3.31371 24.1682 0 24.1682C-3.31371 24.1682 -6 21.4819 -6 18.1682C-6 14.8545 -3.31371 12.1682 0 12.1682C3.31371 12.1682 6 14.8545 6 18.1682Z" fill="#8FFF00"/>
</g>
<g opacity="0.5" filter="url(#filter1_i_176_72)">
<path fill-rule="evenodd" clip-rule="evenodd" d="M0 22.6682C2.48528 22.6682 4.5 20.6535 4.5 18.1682C4.5 15.6829 2.48528 13.6682 0 13.6682C-2.48528 13.6682 -4.5 15.6829 -4.5 18.1682C-4.5 20.6535 -2.48528 22.6682 0 22.6682ZM0 24.1682C3.31371 24.1682 6 21.4819 6 18.1682C6 14.8545 3.31371 12.1682 0 12.1682C-3.31371 12.1682 -6 14.8545 -6 18.1682C-6 21.4819 -3.31371 24.1682 0 24.1682Z" fill="#8FFF00"/>
</g>
<g opacity="0.25" filter="url(#filter2_i_176_72)">
<path d="M9 18.1682C9 23.1388 4.97056 27.1682 0 27.1682C-4.97056 27.1682 -9 23.1388 -9 18.1682C-9 13.1977 -4.97056 9.16821 0 9.16821C4.97056 9.16821 9 13.1977 9 18.1682Z" fill="#8FFF00"/>
</g>
<g opacity="0.25" filter="url(#filter3_i_176_72)">
<path fill-rule="evenodd" clip-rule="evenodd" d="M0 25.6682C4.14214 25.6682 7.5 22.3103 7.5 18.1682C7.5 14.0261 4.14214 10.6682 0 10.6682C-4.14214 10.6682 -7.5 14.0261 -7.5 18.1682C-7.5 22.3103 -4.14214 25.6682 0 25.6682ZM0 27.1682C4.97056 27.1682 9 23.1388 9 18.1682C9 13.1977 4.97056 9.16821 0 9.16821C-4.97056 9.16821 -9 13.1977 -9 18.1682C-9 23.1388 -4.97056 27.1682 0 27.1682Z" fill="#8FFF00"/>
</g>
<g filter="url(#filter4_d_176_72)">
<path d="M3 18.1682C3 19.8251 1.65685 21.1682 0 21.1682C-1.65685 21.1682 -3 19.8251 -3 18.1682C-3 16.5114 -1.65685 15.1682 0 15.1682C1.65685 15.1682 3 16.5114 3 18.1682Z" fill="#8FFF00"/>
</g>
<defs>
<filter id="filter0_i_176_72" x="-6" y="12.1682" width="12" height="12" filterUnits="userSpaceOnUse" color-interpolation-filters="sRGB">
<feFlood flood-opacity="0" result="BackgroundImageFix"/>
<feBlend mode="normal" in="SourceGraphic" in2="BackgroundImageFix" result="shape"/>
<feColorMatrix in="SourceAlpha" type="matrix" values="0 0 0 0 0 0 0 0 0 0 0 0 0 0 0 0 0 0 127 0" result="hardAlpha"/>
<feOffset/>
<feGaussianBlur stdDeviation="37.5"/>
<feComposite in2="hardAlpha" operator="arithmetic" k2="-1" k3="1"/>
<feColorMatrix type="matrix" values="0 0 0 0 0.631333 0 0 0 0 0.341667 0 0 0 0 1 0 0 0 0.25 0"/>
<feBlend mode="normal" in2="shape" result="effect1_innerShadow_176_72"/>
</filter>
<filter id="filter1_i_176_72" x="-6" y="12.1682" width="12" height="12" filterUnits="userSpaceOnUse" color-interpolation-filters="sRGB">
<feFlood flood-opacity="0" result="BackgroundImageFix"/>
<feBlend mode="normal" in="SourceGraphic" in2="BackgroundImageFix" result="shape"/>
<feColorMatrix in="SourceAlpha" type="matrix" values="0 0 0 0 0 0 0 0 0 0 0 0 0 0 0 0 0 0 127 0" result="hardAlpha"/>
<feOffset/>
<feGaussianBlur stdDeviation="37.5"/>
<feComposite in2="hardAlpha" operator="arithmetic" k2="-1" k3="1"/>
<feColorMatrix type="matrix" values="0 0 0 0 0.631333 0 0 0 0 0.341667 0 0 0 0 1 0 0 0 0.25 0"/>
<feBlend mode="normal" in2="shape" result="effect1_innerShadow_176_72"/>
</filter>
<filter id="filter2_i_176_72" x="-9" y="9.16821" width="18" height="18" filterUnits="userSpaceOnUse" color-interpolation-filters="sRGB">
<feFlood flood-opacity="0" result="BackgroundImageFix"/>
<feBlend mode="normal" in="SourceGraphic" in2="BackgroundImageFix" result="shape"/>
<feColorMatrix in="SourceAlpha" type="matrix" values="0 0 0 0 0 0 0 0 0 0 0 0 0 0 0 0 0 0 127 0" result="hardAlpha"/>
<feOffset/>
<feGaussianBlur stdDeviation="37.5"/>
<feComposite in2="hardAlpha" operator="arithmetic" k2="-1" k3="1"/>
<feColorMatrix type="matrix" values="0 0 0 0 0.631333 0 0 0 0 0.341667 0 0 0 0 1 0 0 0 0.25 0"/>
<feBlend mode="normal" in2="shape" result="effect1_innerShadow_176_72"/>
</filter>
<filter id="filter3_i_176_72" x="-9" y="9.16821" width="18" height="18" filterUnits="userSpaceOnUse" color-interpolation-filters="sRGB">
<feFlood flood-opacity="0" result="BackgroundImageFix"/>
<feBlend mode="normal" in="SourceGraphic" in2="BackgroundImageFix" result="shape"/>
<feColorMatrix in="SourceAlpha" type="matrix" values="0 0 0 0 0 0 0 0 0 0 0 0 0 0 0 0 0 0 127 0" result="hardAlpha"/>
<feOffset/>
<feGaussianBlur stdDeviation="37.5"/>
<feComposite in2="hardAlpha" operator="arithmetic" k2="-1" k3="1"/>
<feColorMatrix type="matrix" values="0 0 0 0 0.631333 0 0 0 0 0.341667 0 0 0 0 1 0 0 0 0.25 0"/>
<feBlend mode="normal" in2="shape" result="effect1_innerShadow_176_72"/>
</filter>
<filter id="filter4_d_176_72" x="-18" y="0.168213" width="36" height="36" filterUnits="userSpaceOnUse" color-interpolation-filters="sRGB">
<feFlood flood-opacity="0" result="BackgroundImageFix"/>
<feColorMatrix in="SourceAlpha" type="matrix" values="0 0 0 0 0 0 0 0 0 0 0 0 0 0 0 0 0 0 127 0" result="hardAlpha"/>
<feOffset/>
<feGaussianBlur stdDeviation="7.5"/>
<feComposite in2="hardAlpha" operator="out"/>
<feColorMatrix type="matrix" values="0 0 0 0 0.443137 0 0 0 0 0.0235294 0 0 0 0 0.980392 0 0 0 1 0"/>
<feBlend mode="normal" in2="BackgroundImageFix" result="effect1_dropShadow_176_72"/>
<feBlend mode="normal" in="SourceGraphic" in2="effect1_dropShadow_176_72" result="shape"/>
</filter>
</defs>
</svg>
