<svg width="178" height="267" viewBox="0 0 178 267" fill="none" xmlns="http://www.w3.org/2000/svg">
<g clip-path="url(#clip0_181_91)">
<g opacity="0.75" filter="url(#filter0_di_181_91)">
<circle cx="88.6906" cy="42.8589" r="62.3517" fill="#C2C2C2" fill-opacity="0.1" shape-rendering="crispEdges"/>
<circle cx="88.6906" cy="42.8589" r="61.8517" stroke="#BABABA" stroke-opacity="0.05" shape-rendering="crispEdges"/>
</g>
<g opacity="0.75" filter="url(#filter1_di_181_91)">
<circle cx="88.4998" cy="42.6682" r="104.492" fill="#C2C2C2" fill-opacity="0.1" shape-rendering="crispEdges"/>
<circle cx="88.4998" cy="42.6682" r="103.992" stroke="#BABABA" stroke-opacity="0.05" shape-rendering="crispEdges"/>
</g>
<g opacity="0.75" filter="url(#filter2_di_181_91)">
<circle cx="88.5" cy="42.6682" r="157.5" fill="#C2C2C2" fill-opacity="0.1" shape-rendering="crispEdges"/>
<circle cx="88.5" cy="42.6682" r="157" stroke="#BABABA" stroke-opacity="0.05" shape-rendering="crispEdges"/>
</g>
<g opacity="0.75" filter="url(#filter3_di_181_91)">
<circle cx="88.6906" cy="42.8588" r="43.2839" fill="#C2C2C2" fill-opacity="0.1" shape-rendering="crispEdges"/>
<circle cx="88.6906" cy="42.8588" r="42.7839" stroke="#BABABA" stroke-opacity="0.05" shape-rendering="crispEdges"/>
</g>
<g filter="url(#filter4_di_181_91)">
<path d="M109.794 42.4206C109.794 53.905 100.484 63.215 89 63.215C77.5155 63.215 68.2056 53.905 68.2056 42.4206C68.2056 30.9362 77.5155 21.6262 89 21.6262C100.484 21.6262 109.794 30.9362 109.794 42.4206Z" fill="#464646"/>
</g>
<g opacity="0.25" filter="url(#filter5_di_181_91)">
<path fill-rule="evenodd" clip-rule="evenodd" d="M88.9998 69.3557C103.876 69.3557 115.935 57.2964 115.935 42.4205C115.935 27.5447 103.876 15.4854 88.9998 15.4854C74.1239 15.4854 62.0646 27.5447 62.0646 42.4205C62.0646 57.2964 74.1239 69.3557 88.9998 69.3557ZM88.9998 78.1869C108.753 78.1869 124.766 62.1737 124.766 42.4205C124.766 22.6673 108.753 6.65417 88.9998 6.65417C69.2465 6.65417 53.2334 22.6673 53.2334 42.4205C53.2334 62.1737 69.2465 78.1869 88.9998 78.1869Z" fill="#7B7B7B"/>
</g>
<g opacity="0.25" filter="url(#filter6_di_181_91)">
<path fill-rule="evenodd" clip-rule="evenodd" d="M116.376 42.4205C116.376 57.5403 104.119 69.7972 88.9998 69.7972C73.88 69.7972 61.623 57.5403 61.623 42.4205C61.623 27.3008 73.88 15.0438 88.9998 15.0438C104.119 15.0438 116.376 27.3008 116.376 42.4205ZM88.9998 77.7453C108.509 77.7453 124.325 61.9299 124.325 42.4205C124.325 22.9112 108.509 7.09573 88.9998 7.09573C69.4904 7.09573 53.675 22.9112 53.675 42.4205C53.675 61.9299 69.4904 77.7453 88.9998 77.7453ZM115.935 42.4205C115.935 57.2964 103.876 69.3557 88.9998 69.3557C74.1239 69.3557 62.0646 57.2964 62.0646 42.4205C62.0646 27.5447 74.1239 15.4854 88.9998 15.4854C103.876 15.4854 115.935 27.5447 115.935 42.4205ZM124.766 42.4205C124.766 62.1737 108.753 78.1869 88.9998 78.1869C69.2465 78.1869 53.2334 62.1737 53.2334 42.4205C53.2334 22.6673 69.2465 6.65417 88.9998 6.65417C108.753 6.65417 124.766 22.6673 124.766 42.4205Z" fill="#4D4D4D"/>
</g>
<g filter="url(#filter7_dd_181_91)">
<path fill-rule="evenodd" clip-rule="evenodd" d="M91.9828 37.1852C92.1917 36.885 92.6045 36.8109 92.9048 37.0198C94.68 38.255 95.8441 40.3122 95.8441 42.6415C95.8441 46.4214 92.7799 49.4856 88.9999 49.4856C85.22 49.4856 82.1558 46.4214 82.1558 42.6415C82.1558 40.3122 83.3199 38.255 85.0951 37.0198C85.3954 36.8109 85.8082 36.885 86.0171 37.1852C86.226 37.4855 86.152 37.8983 85.8517 38.1072C84.4171 39.1053 83.4804 40.7641 83.4804 42.6415C83.4804 45.6898 85.9516 48.161 88.9999 48.161C92.0483 48.161 94.5194 45.6898 94.5194 42.6415C94.5194 40.7641 93.5827 39.1053 92.1482 38.1072C91.8479 37.8983 91.7739 37.4855 91.9828 37.1852Z" fill="white"/>
<path fill-rule="evenodd" clip-rule="evenodd" d="M88.9997 33.3687C89.3655 33.3687 89.6621 33.6652 89.6621 34.031L89.6621 38.8882C89.6621 39.254 89.3655 39.5505 88.9997 39.5505C88.6339 39.5505 88.3374 39.254 88.3374 38.8882L88.3374 34.031C88.3374 33.6652 88.6339 33.3687 88.9997 33.3687Z" fill="white"/>
</g>
</g>
<defs>
<filter id="filter0_di_181_91" x="-23.6611" y="-69.4928" width="224.704" height="224.703" filterUnits="userSpaceOnUse" color-interpolation-filters="sRGB">
<feFlood flood-opacity="0" result="BackgroundImageFix"/>
<feColorMatrix in="SourceAlpha" type="matrix" values="0 0 0 0 0 0 0 0 0 0 0 0 0 0 0 0 0 0 127 0" result="hardAlpha"/>
<feOffset/>
<feGaussianBlur stdDeviation="25"/>
<feComposite in2="hardAlpha" operator="out"/>
<feColorMatrix type="matrix" values="0 0 0 0 1 0 0 0 0 1 0 0 0 0 1 0 0 0 0.25 0"/>
<feBlend mode="normal" in2="BackgroundImageFix" result="effect1_dropShadow_181_91"/>
<feBlend mode="normal" in="SourceGraphic" in2="effect1_dropShadow_181_91" result="shape"/>
<feColorMatrix in="SourceAlpha" type="matrix" values="0 0 0 0 0 0 0 0 0 0 0 0 0 0 0 0 0 0 127 0" result="hardAlpha"/>
<feOffset/>
<feGaussianBlur stdDeviation="37.5"/>
<feComposite in2="hardAlpha" operator="arithmetic" k2="-1" k3="1"/>
<feColorMatrix type="matrix" values="0 0 0 0 0.616667 0 0 0 0 0.616667 0 0 0 0 0.616667 0 0 0 0.25 0"/>
<feBlend mode="normal" in2="shape" result="effect2_innerShadow_181_91"/>
</filter>
<filter id="filter1_di_181_91" x="-65.9917" y="-111.823" width="308.983" height="308.983" filterUnits="userSpaceOnUse" color-interpolation-filters="sRGB">
<feFlood flood-opacity="0" result="BackgroundImageFix"/>
<feColorMatrix in="SourceAlpha" type="matrix" values="0 0 0 0 0 0 0 0 0 0 0 0 0 0 0 0 0 0 127 0" result="hardAlpha"/>
<feOffset/>
<feGaussianBlur stdDeviation="25"/>
<feComposite in2="hardAlpha" operator="out"/>
<feColorMatrix type="matrix" values="0 0 0 0 0.883333 0 0 0 0 0.883333 0 0 0 0 0.883333 0 0 0 0.25 0"/>
<feBlend mode="normal" in2="BackgroundImageFix" result="effect1_dropShadow_181_91"/>
<feBlend mode="normal" in="SourceGraphic" in2="effect1_dropShadow_181_91" result="shape"/>
<feColorMatrix in="SourceAlpha" type="matrix" values="0 0 0 0 0 0 0 0 0 0 0 0 0 0 0 0 0 0 127 0" result="hardAlpha"/>
<feOffset/>
<feGaussianBlur stdDeviation="37.5"/>
<feComposite in2="hardAlpha" operator="arithmetic" k2="-1" k3="1"/>
<feColorMatrix type="matrix" values="0 0 0 0 0.5375 0 0 0 0 0.5375 0 0 0 0 0.5375 0 0 0 0.25 0"/>
<feBlend mode="normal" in2="shape" result="effect2_innerShadow_181_91"/>
</filter>
<filter id="filter2_di_181_91" x="-119" y="-164.832" width="415" height="415" filterUnits="userSpaceOnUse" color-interpolation-filters="sRGB">
<feFlood flood-opacity="0" result="BackgroundImageFix"/>
<feColorMatrix in="SourceAlpha" type="matrix" values="0 0 0 0 0 0 0 0 0 0 0 0 0 0 0 0 0 0 127 0" result="hardAlpha"/>
<feOffset/>
<feGaussianBlur stdDeviation="25"/>
<feComposite in2="hardAlpha" operator="out"/>
<feColorMatrix type="matrix" values="0 0 0 0 1 0 0 0 0 1 0 0 0 0 1 0 0 0 0.25 0"/>
<feBlend mode="normal" in2="BackgroundImageFix" result="effect1_dropShadow_181_91"/>
<feBlend mode="normal" in="SourceGraphic" in2="effect1_dropShadow_181_91" result="shape"/>
<feColorMatrix in="SourceAlpha" type="matrix" values="0 0 0 0 0 0 0 0 0 0 0 0 0 0 0 0 0 0 127 0" result="hardAlpha"/>
<feOffset/>
<feGaussianBlur stdDeviation="37.5"/>
<feComposite in2="hardAlpha" operator="arithmetic" k2="-1" k3="1"/>
<feColorMatrix type="matrix" values="0 0 0 0 0.654167 0 0 0 0 0.654167 0 0 0 0 0.654167 0 0 0 0.25 0"/>
<feBlend mode="normal" in2="shape" result="effect2_innerShadow_181_91"/>
</filter>
<filter id="filter3_di_181_91" x="-4.59326" y="-50.425" width="186.568" height="186.568" filterUnits="userSpaceOnUse" color-interpolation-filters="sRGB">
<feFlood flood-opacity="0" result="BackgroundImageFix"/>
<feColorMatrix in="SourceAlpha" type="matrix" values="0 0 0 0 0 0 0 0 0 0 0 0 0 0 0 0 0 0 127 0" result="hardAlpha"/>
<feOffset/>
<feGaussianBlur stdDeviation="25"/>
<feComposite in2="hardAlpha" operator="out"/>
<feColorMatrix type="matrix" values="0 0 0 0 0.470833 0 0 0 0 0.470833 0 0 0 0 0.470833 0 0 0 0.25 0"/>
<feBlend mode="normal" in2="BackgroundImageFix" result="effect1_dropShadow_181_91"/>
<feBlend mode="normal" in="SourceGraphic" in2="effect1_dropShadow_181_91" result="shape"/>
<feColorMatrix in="SourceAlpha" type="matrix" values="0 0 0 0 0 0 0 0 0 0 0 0 0 0 0 0 0 0 127 0" result="hardAlpha"/>
<feOffset/>
<feGaussianBlur stdDeviation="37.5"/>
<feComposite in2="hardAlpha" operator="arithmetic" k2="-1" k3="1"/>
<feColorMatrix type="matrix" values="0 0 0 0 0.233333 0 0 0 0 0.233333 0 0 0 0 0.233333 0 0 0 0.25 0"/>
<feBlend mode="normal" in2="shape" result="effect2_innerShadow_181_91"/>
</filter>
<filter id="filter4_di_181_91" x="18.2056" y="-28.3738" width="141.589" height="141.589" filterUnits="userSpaceOnUse" color-interpolation-filters="sRGB">
<feFlood flood-opacity="0" result="BackgroundImageFix"/>
<feColorMatrix in="SourceAlpha" type="matrix" values="0 0 0 0 0 0 0 0 0 0 0 0 0 0 0 0 0 0 127 0" result="hardAlpha"/>
<feOffset/>
<feGaussianBlur stdDeviation="25"/>
<feComposite in2="hardAlpha" operator="out"/>
<feColorMatrix type="matrix" values="0 0 0 0 0 0 0 0 0 0 0 0 0 0 0 0 0 0 1 0"/>
<feBlend mode="normal" in2="BackgroundImageFix" result="effect1_dropShadow_181_91"/>
<feBlend mode="normal" in="SourceGraphic" in2="effect1_dropShadow_181_91" result="shape"/>
<feColorMatrix in="SourceAlpha" type="matrix" values="0 0 0 0 0 0 0 0 0 0 0 0 0 0 0 0 0 0 127 0" result="hardAlpha"/>
<feOffset/>
<feGaussianBlur stdDeviation="12.5"/>
<feComposite in2="hardAlpha" operator="arithmetic" k2="-1" k3="1"/>
<feColorMatrix type="matrix" values="0 0 0 0 1 0 0 0 0 1 0 0 0 0 1 0 0 0 0.25 0"/>
<feBlend mode="normal" in2="shape" result="effect2_innerShadow_181_91"/>
</filter>
<filter id="filter5_di_181_91" x="28.2334" y="-18.3458" width="121.533" height="121.533" filterUnits="userSpaceOnUse" color-interpolation-filters="sRGB">
<feFlood flood-opacity="0" result="BackgroundImageFix"/>
<feColorMatrix in="SourceAlpha" type="matrix" values="0 0 0 0 0 0 0 0 0 0 0 0 0 0 0 0 0 0 127 0" result="hardAlpha"/>
<feOffset/>
<feGaussianBlur stdDeviation="12.5"/>
<feComposite in2="hardAlpha" operator="out"/>
<feColorMatrix type="matrix" values="0 0 0 0 0 0 0 0 0 0 0 0 0 0 0 0 0 0 0.5 0"/>
<feBlend mode="normal" in2="BackgroundImageFix" result="effect1_dropShadow_181_91"/>
<feBlend mode="normal" in="SourceGraphic" in2="effect1_dropShadow_181_91" result="shape"/>
<feColorMatrix in="SourceAlpha" type="matrix" values="0 0 0 0 0 0 0 0 0 0 0 0 0 0 0 0 0 0 127 0" result="hardAlpha"/>
<feOffset/>
<feGaussianBlur stdDeviation="17.5"/>
<feComposite in2="hardAlpha" operator="arithmetic" k2="-1" k3="1"/>
<feColorMatrix type="matrix" values="0 0 0 0 1 0 0 0 0 1 0 0 0 0 1 0 0 0 0.5 0"/>
<feBlend mode="normal" in2="shape" result="effect2_innerShadow_181_91"/>
</filter>
<filter id="filter6_di_181_91" x="28.2334" y="-18.3458" width="121.533" height="121.533" filterUnits="userSpaceOnUse" color-interpolation-filters="sRGB">
<feFlood flood-opacity="0" result="BackgroundImageFix"/>
<feColorMatrix in="SourceAlpha" type="matrix" values="0 0 0 0 0 0 0 0 0 0 0 0 0 0 0 0 0 0 127 0" result="hardAlpha"/>
<feOffset/>
<feGaussianBlur stdDeviation="12.5"/>
<feComposite in2="hardAlpha" operator="out"/>
<feColorMatrix type="matrix" values="0 0 0 0 0.475 0 0 0 0 0.475 0 0 0 0 0.475 0 0 0 0.5 0"/>
<feBlend mode="normal" in2="BackgroundImageFix" result="effect1_dropShadow_181_91"/>
<feBlend mode="normal" in="SourceGraphic" in2="effect1_dropShadow_181_91" result="shape"/>
<feColorMatrix in="SourceAlpha" type="matrix" values="0 0 0 0 0 0 0 0 0 0 0 0 0 0 0 0 0 0 127 0" result="hardAlpha"/>
<feOffset/>
<feGaussianBlur stdDeviation="17.5"/>
<feComposite in2="hardAlpha" operator="arithmetic" k2="-1" k3="1"/>
<feColorMatrix type="matrix" values="0 0 0 0 0.298489 0 0 0 0 0.294028 0 0 0 0 0.304167 0 0 0 0.5 0"/>
<feBlend mode="normal" in2="shape" result="effect2_innerShadow_181_91"/>
</filter>
<filter id="filter7_dd_181_91" x="57.1558" y="8.36865" width="63.6885" height="66.117" filterUnits="userSpaceOnUse" color-interpolation-filters="sRGB">
<feFlood flood-opacity="0" result="BackgroundImageFix"/>
<feColorMatrix in="SourceAlpha" type="matrix" values="0 0 0 0 0 0 0 0 0 0 0 0 0 0 0 0 0 0 127 0" result="hardAlpha"/>
<feOffset/>
<feGaussianBlur stdDeviation="12.5"/>
<feComposite in2="hardAlpha" operator="out"/>
<feColorMatrix type="matrix" values="0 0 0 0 0 0 0 0 0 0 0 0 0 0 0 0 0 0 0.75 0"/>
<feBlend mode="normal" in2="BackgroundImageFix" result="effect1_dropShadow_181_91"/>
<feColorMatrix in="SourceAlpha" type="matrix" values="0 0 0 0 0 0 0 0 0 0 0 0 0 0 0 0 0 0 127 0" result="hardAlpha"/>
<feOffset/>
<feGaussianBlur stdDeviation="6"/>
<feComposite in2="hardAlpha" operator="out"/>
<feColorMatrix type="matrix" values="0 0 0 0 1 0 0 0 0 1 0 0 0 0 1 0 0 0 1 0"/>
<feBlend mode="normal" in2="effect1_dropShadow_181_91" result="effect2_dropShadow_181_91"/>
<feBlend mode="normal" in="SourceGraphic" in2="effect2_dropShadow_181_91" result="shape"/>
</filter>
<clipPath id="clip0_181_91">
<rect width="178" height="266.168" fill="white"/>
</clipPath>
</defs>
</svg>
