<svg width="8" height="4" viewBox="0 0 8 4" fill="none" xmlns="http://www.w3.org/2000/svg">
<path fill-rule="evenodd" clip-rule="evenodd" d="M1.90053 1.12979C1.44837 1.26967 1.05326 1.78057 0.832625 2.26566C0.713027 2.52861 0.442312 2.62284 0.227965 2.47612C0.0136182 2.3294 -0.0631911 1.9973 0.0564066 1.73434C0.334791 1.12227 0.894041 0.316579 1.68318 0.0724513C2.53666 -0.191578 3.46544 0.249514 4.35262 1.66813C5.11219 2.8827 5.71165 2.99019 6.09947 2.87021C6.55163 2.73033 6.94674 2.21943 7.16738 1.73434C7.28697 1.47139 7.55769 1.37716 7.77203 1.52388C7.98638 1.6706 8.06319 2.0027 7.94359 2.26566C7.66521 2.87773 7.10596 3.68342 6.31682 3.92755C5.46334 4.19158 4.53456 3.75049 3.64738 2.33187C2.88781 1.1173 2.28835 1.00981 1.90053 1.12979Z" fill="#8FFF00"/>
</svg>
